<mxfile host="app.diagrams.net" modified="2024-01-08T09:18:13.268Z" agent="Mozilla/5.0 (Windows NT 10.0; Win64; x64) AppleWebKit/537.36 (KHTML, like Gecko) Chrome/120.0.0.0 Safari/537.36 Edg/120.0.0.0" etag="Td91CvctovpxfyCdbIRy" version="22.1.17" type="device">
  <diagram id="R2lEEEUBdFMjLlhIrx00" name="Page-1">
    <mxGraphModel dx="1339" dy="785" grid="1" gridSize="10" guides="1" tooltips="1" connect="1" arrows="1" fold="1" page="1" pageScale="1" pageWidth="850" pageHeight="1100" math="0" shadow="0" extFonts="Permanent Marker^https://fonts.googleapis.com/css?family=Permanent+Marker">
      <root>
        <mxCell id="0" />
        <mxCell id="1" parent="0" />
        <mxCell id="tzqncbF-SK_q0Mfwbc7l-1" value="User" style="shape=umlActor;verticalLabelPosition=bottom;verticalAlign=top;html=1;outlineConnect=0;" parent="1" vertex="1">
          <mxGeometry x="80" y="360" width="80" height="160" as="geometry" />
        </mxCell>
        <mxCell id="tzqncbF-SK_q0Mfwbc7l-6" value="" style="rounded=1;whiteSpace=wrap;html=1;" parent="1" vertex="1">
          <mxGeometry x="250" y="160" width="215" height="600" as="geometry" />
        </mxCell>
        <mxCell id="tzqncbF-SK_q0Mfwbc7l-14" value="Chủ cầm đồ" style="shape=umlActor;verticalLabelPosition=bottom;verticalAlign=top;html=1;outlineConnect=0;" parent="1" vertex="1">
          <mxGeometry x="560" y="370" width="80" height="150" as="geometry" />
        </mxCell>
        <mxCell id="tzqncbF-SK_q0Mfwbc7l-17" value="list of&amp;nbsp;" style="ellipse;whiteSpace=wrap;html=1;" parent="1" vertex="1">
          <mxGeometry x="287.5" y="190" width="120" height="80" as="geometry" />
        </mxCell>
        <mxCell id="tzqncbF-SK_q0Mfwbc7l-18" value="Hospital Manager System" style="text;html=1;strokeColor=none;fillColor=none;align=center;verticalAlign=middle;whiteSpace=wrap;rounded=0;" parent="1" vertex="1">
          <mxGeometry x="297.5" y="770" width="100" height="30" as="geometry" />
        </mxCell>
        <mxCell id="tzqncbF-SK_q0Mfwbc7l-19" value="view list of items" style="ellipse;whiteSpace=wrap;html=1;" parent="1" vertex="1">
          <mxGeometry x="287.5" y="280" width="120" height="80" as="geometry" />
        </mxCell>
        <mxCell id="tzqncbF-SK_q0Mfwbc7l-20" value="search item" style="ellipse;whiteSpace=wrap;html=1;" parent="1" vertex="1">
          <mxGeometry x="287.5" y="370" width="120" height="80" as="geometry" />
        </mxCell>
        <mxCell id="tzqncbF-SK_q0Mfwbc7l-21" value="&lt;br&gt;List of expired items" style="ellipse;whiteSpace=wrap;html=1;" parent="1" vertex="1">
          <mxGeometry x="287.5" y="470" width="120" height="80" as="geometry" />
        </mxCell>
        <mxCell id="tzqncbF-SK_q0Mfwbc7l-22" value="delete items" style="ellipse;whiteSpace=wrap;html=1;" parent="1" vertex="1">
          <mxGeometry x="287.5" y="570" width="120" height="80" as="geometry" />
        </mxCell>
        <mxCell id="tzqncbF-SK_q0Mfwbc7l-23" value="" style="ellipse;whiteSpace=wrap;html=1;" parent="1" vertex="1">
          <mxGeometry x="287.5" y="660" width="120" height="80" as="geometry" />
        </mxCell>
      </root>
    </mxGraphModel>
  </diagram>
</mxfile>
